<svg id="Layer_1" data-name="Layer 1" xmlns="http://www.w3.org/2000/svg" viewBox="0 0 500.95 507.97"><defs><style>.cls-1{fill:#deba2f;}.cls-2{fill:#deba2d;}.cls-3{fill:#131313;}.cls-4{fill:#fff;}.cls-5{fill:#d3e6f2;}.cls-6{fill:#b6d0e5;}</style></defs><polygon class="cls-1" points="221.62 507.97 209.7 467.51 157.95 450.7 124.54 476.42 77.84 442.5 91.98 402.77 60 358.75 17.85 359.91 0 305.02 34.79 281.18 34.79 226.77 0 202.94 17.85 148.04 60 149.21 91.98 105.2 77.84 65.47 124.54 31.54 157.95 57.26 209.7 40.44 221.62 0 279.33 0 291.25 40.44 343 57.26 376.42 31.54 423.12 65.47 408.97 105.2 440.96 149.21 483.12 148.04 500.95 202.94 466.15 226.77 466.15 281.18 500.95 305.02 483.12 359.91 440.96 358.75 408.97 402.77 423.12 442.5 376.42 476.42 343 450.7 291.25 467.51 279.33 507.97 221.62 507.97"/><circle class="cls-2" cx="266.88" cy="266.88" r="244.16" transform="translate(-126.95 253.98) rotate(-45)"/><g id="Inner"><circle class="cls-3" cx="250.47" cy="253.98" r="210.02"/></g><path class="cls-4" d="M398.51,141.79,350.85,382.12s-6.67,16.67-25,8.67l-110-84.33-40-19.34-67.34-22.66s-10.33-3.67-11.33-11.67,11.67-12.33,11.67-12.33l267.66-105S398.51,125.79,398.51,141.79Z" transform="translate(-16.41 -12.9)"/><path class="cls-5" d="M207.39,379.42s-3.21-.3-7.21-13-24.33-79.34-24.33-79.34L337.51,184.46s9.34-5.67,9,0c0,0,1.67,1-3.33,5.66s-127,114.34-127,114.34" transform="translate(-16.41 -12.9)"/><path class="cls-6" d="M258,338.79l-43.51,39.67s-3.4,2.58-7.12,1l8.33-73.68" transform="translate(-16.41 -12.9)"/></svg>