<svg xmlns="http://www.w3.org/2000/svg" viewBox="0 0 432.11 424.81"><defs><style>.cls-1{fill:#111;stroke:#2e75bb;stroke-width:11px;}.cls-1,.cls-2,.cls-3{stroke-miterlimit:10;}.cls-2,.cls-5{fill:none;}.cls-2,.cls-3{stroke:#8e459a;stroke-width:7px;}.cls-3,.cls-4{fill:#fff;}</style></defs><g id="Icon"><circle id="Circle" class="cls-1" cx="134.63" cy="134.63" r="129.13"/><rect id="Cube" class="cls-1" x="198.38" y="191.08" width="228.23" height="228.23" rx="2.94"/></g><g id="Japanese"><path class="cls-2" d="M138.81,392.23" transform="translate(-19.43 -28.27)"/><path class="cls-2" d="M35.06,392.23" transform="translate(-19.43 -28.27)"/><path class="cls-3" d="M46.42,463.45" transform="translate(-19.43 -28.27)"/><path class="cls-3" d="M122.29,392.23" transform="translate(-19.43 -28.27)"/><path class="cls-4" d="M201.28,201.27l-3.88,5q-25.43-8.18-42.92-23.53Q137,197.86,111.45,206l-4.08-4.71q27-7.92,43-22.54a111.4,111.4,0,0,1-23.69-38.25l5.14-2.36q8.07,22.11,22.74,37.16A101.08,101.08,0,0,0,176.49,134h-68.7v-5.61h44.85a98.63,98.63,0,0,0-9.43-15.46l5.61-2.14a103.14,103.14,0,0,1,9.85,17.6h42.61V134H182.2q-7.12,27.15-23.32,45Q174.87,193.31,201.28,201.27Z" transform="translate(-19.43 -28.27)"/><path class="cls-4" d="M340.53,300.38c.3.23.45,1.05.45,2.45a9,9,0,0,1-.45,3.25l.65,2.11a83.76,83.76,0,0,0,3.26,9.71q2,5.1,3.95,11a171.12,171.12,0,0,0,9.29,23.06q4.83,9.58,8.84,13.49a29.05,29.05,0,0,1,3.12,3.38,3.78,3.78,0,0,1,.63,2.18,5.15,5.15,0,0,1-1.48,3.73,4.73,4.73,0,0,1-3.53,1.53q-6.4,0-15.52-20.18-3.64-8-4.4-8A75.18,75.18,0,0,0,335,349.54,137,137,0,0,0,320.5,353a23.58,23.58,0,0,1-4.75,1.15,4,4,0,0,1-2.61-1.26.92.92,0,0,0-.6-.2c-.73,0-2.32,2.17-4.75,6.51q-6,10.77-7.59,12.85a4.42,4.42,0,0,1-3.48,2.07,5.54,5.54,0,0,1-3.25-1.57,4.35,4.35,0,0,1-1.9-3.23,8.8,8.8,0,0,1,1.8-4.33q1.8-2.73,7.36-11a301.24,301.24,0,0,0,16.72-27.54q10.77-20.48,13.67-24.16c1.93-2.45,3.42-3.68,4.45-3.68A6.36,6.36,0,0,1,340.53,300.38Zm3.05,39.8q-1.74-4-5.15-14.67-3.71-11.37-4.71-13.82-2.75,5.81-8.51,16.47l-9.06,17.17q1.05-.79,5.56-1.3a53.72,53.72,0,0,0,6-.9Q341.39,340.39,343.58,340.18Z" transform="translate(-19.43 -28.27)"/><line class="cls-5" x1="15.64" y1="421.24" x2="135.12" y2="303.95"/></g></svg>