<svg id="Layer_1" data-name="Layer 1" xmlns="http://www.w3.org/2000/svg" viewBox="0 0 447.64 453.91"><defs><style>.cls-1{fill:#deba2f;}.cls-2{fill:#deba2d;}.cls-3{fill:#131313;}.cls-4{fill:#ddb92b;}.cls-5{fill:#2a74ba;}.cls-6{fill:#4c9a57;}.cls-7{fill:#b66a49;}</style></defs><polygon class="cls-1" points="198.03 453.91 187.39 417.76 141.14 402.74 111.29 425.73 69.56 395.41 82.19 359.91 53.61 320.58 15.95 321.61 0 272.57 31.09 251.26 31.09 202.64 0 181.35 15.95 132.29 53.61 133.34 82.19 94 69.56 58.5 111.29 28.19 141.14 51.17 187.39 36.14 198.03 0 249.61 0 260.25 36.14 306.5 51.17 336.37 28.19 378.09 58.5 365.45 94 394.04 133.34 431.71 132.29 447.64 181.35 416.55 202.64 416.55 251.26 447.64 272.57 431.71 321.61 394.04 320.58 365.45 359.91 378.09 395.41 336.37 425.73 306.5 402.74 260.25 417.76 249.61 453.91 198.03 453.91"/><circle class="cls-2" cx="266.65" cy="266.88" r="218.18" transform="translate(-153.44 226.79) rotate(-45)"/><g id="Inner"><circle class="cls-3" cx="266.65" cy="266.88" r="187.67" transform="translate(-153.44 226.79) rotate(-45)"/></g><rect class="cls-4" x="198.6" y="255.76" width="49.63" height="49.63"/><rect class="cls-4" x="198.6" y="203.34" width="49.63" height="49.63"/><rect class="cls-5" x="347.96" y="152.72" width="49.63" height="49.63" transform="translate(460.79 -254.01) rotate(83.01)"/><rect class="cls-6" x="261.79" y="162.43" width="49.63" height="49.63" transform="translate(127.92 -174.83) rotate(37.06)"/><rect class="cls-7" x="337.84" y="221.24" width="49.63" height="49.63" transform="translate(368.38 -229.42) rotate(62.2)"/><rect class="cls-4" x="146.18" y="255.76" width="49.63" height="49.63"/><rect class="cls-4" x="146.18" y="203.34" width="49.63" height="49.63"/><rect class="cls-4" x="146.18" y="150.92" width="49.63" height="49.63"/><rect class="cls-4" x="251.02" y="255.76" width="49.63" height="49.63"/></svg>